<?xml version="1.0" encoding="UTF-8"?>
<svg id="Capa_2" data-name="Capa 2" xmlns="http://www.w3.org/2000/svg" viewBox="0 0 161.18 167.23">
  <defs>
    <style>
      .cls-1 {
        fill: #003764;
      }

      .cls-2 {
        fill: #f5a800;
      }

      .cls-3 {
        fill: #1d1d1b;
      }

      .cls-4 {
        fill: #010101;
      }

      .cls-5 {
        fill: #009877;
      }
    </style>
  </defs>
  <g id="Capa_1-2" data-name="Capa 1">
    <g>
      <path class="cls-2" d="M1.63,120.61l42.45-3.8c.92-.08,1.79,.45,2.13,1.31l18.61,46.65c.48,1.2-.43,2.49-1.72,2.46l-41.64-1.24c-.72-.02-1.37-.44-1.67-1.1L.17,123.15c-.53-1.13,.22-2.44,1.46-2.55"/>
      <path class="cls-1" d="M88.79,132.44l-14.4-43.17c-.3-.89-1.45-1.14-2.09-.44l-22.66,24.79c-.58,.64-.76,1.55-.44,2.36l18.36,47.07c.42,1.09,1.91,1.23,2.53,.25l18.48-29.1c.33-.52,.41-1.17,.22-1.76m-18.29,20.03c-1.81,.17-3.56-2.64-3.9-6.28-.34-3.64,.85-6.73,2.67-6.9,1.81-.17,3.56,2.64,3.9,6.28,.34,3.64-.85,6.73-2.67,6.9m1.14-21.03c-1.73,.16-3.4-2.49-3.72-5.92-.32-3.43,.82-6.34,2.56-6.5,1.73-.16,3.4,2.49,3.72,5.92,.32,3.43-.82,6.34-2.56,6.5m1.53-20.81c-1.67,.16-3.27-2.37-3.58-5.64-.31-3.27,.8-6.05,2.47-6.2,1.67-.16,3.27,2.37,3.58,5.64,.3,3.27-.8,6.05-2.47,6.2"/>
      <path class="cls-5" d="M68.1,86.34l-39.8,6.2c-.31,.05-.6,.18-.83,.39L3.33,114.57c-1.16,1.04-.32,2.96,1.23,2.81l40.15-3.64c.73-.07,1.41-.4,1.91-.94l22.53-24.51c.75-.82,.05-2.12-1.04-1.95m-31.41,17.17c-3.22,1.23-6.14,1.43-6.52,.43-.38-.99,1.92-2.8,5.14-4.04,3.22-1.23,6.14-1.43,6.52-.43,.38,.99-1.92,2.8-5.14,4.03"/>
      <path class="cls-3" d="M41.49,127.41c2.57,2.4,3.3,5.78,1.64,7.56-1.66,1.78-5.09,1.29-7.66-1.11-2.57-2.4-3.3-5.78-1.64-7.57,1.66-1.78,5.09-1.28,7.66,1.11"/>
      <path class="cls-3" d="M28.89,152.15c2.4,2.24,3.09,5.38,1.56,7.03-1.54,1.65-4.72,1.17-7.12-1.07-2.4-2.24-3.09-5.38-1.56-7.03,1.54-1.65,4.72-1.17,7.12,1.07"/>
      <path class="cls-2" d="M142.32,10.53l18.74,41.41c.45,.99-.34,2.1-1.42,2l-33.85-3.04c-.75-.07-1.39-.55-1.66-1.25L105.13,1.4c-.31-.78,.41-1.58,1.22-1.36l34.84,9.53c.5,.14,.92,.49,1.13,.97"/>
      <path class="cls-4" d="M115.63,10.21c-2.18-.4-3.06,1.5-1.94,4.34,1.13,2.84,3.86,5.51,6.08,5.92,2.22,.41,3.02-1.69,1.85-4.54-1.17-2.85-3.82-5.32-5.99-5.72"/>
      <path class="cls-4" d="M127.17,12.39c-2.14-.4-3,1.47-1.9,4.26,1.1,2.78,3.79,5.41,5.97,5.81,2.18,.4,2.96-1.66,1.81-4.45-1.15-2.79-3.74-5.22-5.88-5.61"/>
      <path class="cls-4" d="M137.91,14.84c-2.07-.39-2.92,1.43-1.84,4.13,1.07,2.7,3.68,5.25,5.79,5.64,2.12,.39,2.87-1.61,1.76-4.32-1.12-2.71-3.63-5.06-5.7-5.45"/>
      <path class="cls-4" d="M125.51,33.98c-2.18-.41-3.06,1.5-1.94,4.34,1.13,2.84,3.86,5.51,6.09,5.92,2.22,.41,3.02-1.69,1.84-4.54-1.17-2.85-3.81-5.32-5.99-5.72"/>
      <path class="cls-4" d="M137.34,35.59c-2.14-.4-3,1.47-1.9,4.26,1.1,2.78,3.79,5.41,5.97,5.81,2.18,.4,2.96-1.66,1.81-4.45-1.15-2.79-3.74-5.22-5.88-5.61"/>
      <path class="cls-4" d="M148.08,37.18c-2.07-.39-2.91,1.43-1.84,4.13,1.07,2.7,3.68,5.25,5.79,5.64,2.11,.39,2.87-1.61,1.76-4.32-1.12-2.71-3.63-5.06-5.7-5.45"/>
      <path class="cls-1" d="M120.62,49.7L102.29,2.09c-.3-.78-1.3-.99-1.89-.4l-30.6,30.37c-.56,.56-.76,1.39-.52,2.14l14.43,44.73c.26,.8,1.24,1.1,1.9,.57l34.38-27.48c.69-.55,.95-1.49,.63-2.32m-38.26-7.98c-1.98,1.82-4.33,1.05-5.26-1.74-.92-2.78-.11-6.55,1.83-8.4,1.93-1.86,4.29-1.08,5.26,1.73,.97,2.82,.15,6.58-1.83,8.41m8.1,24.28c-1.98,1.83-4.33,1.05-5.26-1.73-.92-2.78-.1-6.55,1.83-8.41,1.93-1.86,4.28-1.08,5.25,1.73,.97,2.82,.15,6.58-1.83,8.4m4.21-19.33c-2.08,1.92-4.55,1.1-5.52-1.82-.97-2.92-.11-6.87,1.92-8.82,2.03-1.95,4.5-1.14,5.52,1.82,1.02,2.96,.16,6.91-1.92,8.82m4.46-20.43c-1.98,1.83-4.33,1.05-5.26-1.73-.92-2.78-.11-6.55,1.83-8.4,1.93-1.86,4.29-1.08,5.26,1.73s.15,6.58-1.83,8.4m9.32,25.61c-2.27,2.09-4.96,1.2-6.02-1.99-1.06-3.19-.12-7.5,2.09-9.63,2.21-2.13,4.91-1.24,6.02,1.99,1.11,3.23,.17,7.54-2.09,9.63"/>
      <path class="cls-5" d="M157.32,56.22l-32.68-2.65c-.49-.04-.97,.1-1.36,.4l-33.1,25.52c-.96,.74-.42,2.27,.79,2.24l33.14-.68c.44,0,.87-.15,1.23-.4l32.54-22.32c.91-.62,.53-2.04-.57-2.13m-50.89,21.04c-3.14,1.22-6.02,1.36-6.42,.32-.4-1.04,1.82-2.87,4.96-4.09,3.14-1.22,6.02-1.36,6.42-.32,.4,1.04-1.82,2.87-4.96,4.09m11.47-12.83c-.47-1.14,1.87-3.19,5.23-4.58,3.36-1.39,6.47-1.6,6.94-.47,.47,1.14-1.87,3.19-5.23,4.58-3.36,1.39-6.47,1.6-6.94,.46m7.49,13.11c-3.11,1.29-5.98,1.5-6.41,.47s1.75-2.91,4.87-4.2c3.11-1.29,5.98-1.5,6.41-.47,.43,1.03-1.75,2.91-4.87,4.2m18.35-13.06c-3.23,1.34-6.22,1.54-6.67,.45-.45-1.09,1.8-3.07,5.03-4.41,3.23-1.34,6.22-1.54,6.67-.45,.45,1.09-1.8,3.07-5.03,4.41"/>
    </g>
  </g>
</svg>